<svg width="72" height="53" xmlns="http://www.w3.org/2000/svg" xmlns:xlink="http://www.w3.org/1999/xlink" overflow="hidden"><defs><clipPath id="clip0"><rect x="712" y="455" width="72" height="53"/></clipPath><clipPath id="clip1"><rect x="713" y="456" width="70" height="52"/></clipPath><clipPath id="clip2"><rect x="713" y="456" width="70" height="52"/></clipPath><clipPath id="clip3"><rect x="713" y="433" width="70" height="75"/></clipPath></defs><g clip-path="url(#clip0)" transform="translate(-712 -455)"><g clip-path="url(#clip1)"><g clip-path="url(#clip2)"><g clip-path="url(#clip3)"><path d="M68.5415 52.2998C68.543 50.3408 68.1488 48.4015 67.383 46.5986 66.6172 44.7955 65.4955 43.1655 64.085 41.8064 62.6742 40.4471 61.0036 39.3866 59.1735 38.6883 57.3429 37.99 55.3907 37.6684 53.4331 37.7426 51.5042 33.6408 48.2629 30.2992 44.2221 28.2459 40.1814 26.1926 35.5712 25.5449 31.1209 26.4052 26.6707 27.2654 22.6342 29.5846 19.6496 32.9959 16.6651 36.4073 14.9028 40.7162 14.6415 45.2413 13.0494 44.9078 11.4029 44.9337 9.82191 45.3166 8.24096 45.6999 6.76536 46.4306 5.50249 47.4562 4.23962 48.4813 3.22133 49.7756 2.52171 51.2442 1.82209 52.7128 1.45877 54.3186 1.45819 55.9454 1.45819 67.0579 13.1249 66.8829 13.1249 66.8829L55.4165 66.8829C55.4165 66.8829 68.5415 65.1739 68.5415 52.2998Z" stroke="#FFFFFF" stroke-width="2.91663" stroke-linecap="round" stroke-linejoin="round" fill="#008CB9" transform="matrix(1 0 0 1.0101 713 433.758)"/><path d="M47.4743 9.80098C43.4035 7.08326 38.6187 5.63283 33.7237 5.63283 28.829 5.63283 24.044 7.08326 19.9731 9.80098" stroke="#FFFFFF" stroke-width="2.91663" stroke-linecap="round" stroke-linejoin="round" fill="#008CB9" transform="matrix(1 0 0 1.0101 713 433.758)"/><path d="M41.0053 17.2995C38.8493 15.8624 36.3163 15.0955 33.7253 15.0955 31.1342 15.0955 28.6012 15.8624 26.4453 17.2995" stroke="#FFFFFF" stroke-width="2.91663" stroke-linecap="round" stroke-linejoin="round" fill="#008CB9" transform="matrix(1 0 0 1.0101 713 433.758)"/></g></g></g></g></svg>