<svg width="20" height="21" viewBox="0 0 20 21" xmlns="http://www.w3.org/2000/svg" xmlns:xlink="http://www.w3.org/1999/xlink" fill="none" overflow="hidden"><path d="M17.5 2.82198C18.0754 2.94847 18.5924 3.26277 18.9696 3.71537 19.3468 4.16798 19.5627 4.73318 19.5833 5.32198L19.5833 6.98865C19.5801 7.42966 19.4034 7.85169 19.0916 8.16354 18.7797 8.4754 18.3577 8.65204 17.9167 8.65531L15.4167 8.65531C14.9757 8.65183 14.5538 8.47511 14.242 8.16331 13.9302 7.8515 13.7535 7.4296 13.75 6.98865L13.75 5.73865C11.256 5.49365 8.744 5.49365 6.25 5.73865L6.25 6.98865C6.24652 7.4296 6.0698 7.8515 5.75799 8.16331 5.44619 8.47511 5.02428 8.65183 4.58333 8.65531L2.08333 8.65531C1.64232 8.65204 1.22029 8.4754 0.908438 8.16354 0.596584 7.85169 0.419939 7.42966 0.416668 6.98865L0.416668 5.32198C0.437324 4.73318 0.653237 4.16798 1.03041 3.71537 1.40758 3.26277 1.92458 2.94847 2.5 2.82198 7.44893 1.81129 12.5511 1.81129 17.5 2.82198Z" stroke="#FFFFFF" stroke-width="0.833333" stroke-linecap="round" stroke-linejoin="round" fill="#008CB9"/><path d="M17.9167 17.8219C17.9167 18.0429 17.8289 18.2548 17.6726 18.4111 17.5163 18.5674 17.3043 18.6552 17.0833 18.6552L2.91665 18.6552C2.69564 18.6552 2.48368 18.5674 2.3274 18.4111 2.17112 18.2548 2.08332 18.0429 2.08332 17.8219L2.08332 16.1552C2.08838 14.3886 2.79238 12.6959 4.04153 11.4467 5.29068 10.1976 6.98343 9.49358 8.74999 9.48853L11.25 9.48853C13.0165 9.49358 14.7093 10.1976 15.9584 11.4467 17.2076 12.6959 17.9116 14.3886 17.9167 16.1552L17.9167 17.8219Z" stroke="#FFFFFF" stroke-width="0.833333" stroke-linecap="round" stroke-linejoin="round" fill="#008CB9"/><path d="M8.74998 7.82202 8.74998 9.48869" stroke="#FFFFFF" stroke-width="0.833333" stroke-linecap="round" stroke-linejoin="round" fill="#008CB9"/><path d="M11.25 7.82202 11.25 9.48869 11.25 7.82202Z" stroke="#FFFFFF" fill="#008CB9"/><path d="M11.25 7.82202 11.25 9.48869" stroke="#FFFFFF" stroke-width="0.833333" stroke-linecap="round" stroke-linejoin="round" fill="#008CB9"/><path d="M7.08332 14.0719C7.08332 14.455 7.15876 14.8342 7.30534 15.1881 7.45191 15.542 7.66676 15.8635 7.93759 16.1343 8.20843 16.4052 8.52996 16.62 8.88383 16.7666 9.23769 16.9132 9.61697 16.9886 9.99999 16.9886 10.383 16.9886 10.7623 16.9132 11.1161 16.7666 11.47 16.62 11.7915 16.4052 12.0624 16.1343 12.3332 15.8635 12.5481 15.542 12.6946 15.1881 12.8412 14.8342 12.9167 14.455 12.9167 14.0719 12.9167 13.6889 12.8412 13.3096 12.6946 12.9558 12.5481 12.6019 12.3332 12.2804 12.0624 12.0095 11.7915 11.7387 11.47 11.5239 11.1161 11.3773 10.7623 11.2307 10.383 11.1553 9.99999 11.1553 9.61697 11.1553 9.23769 11.2307 8.88383 11.3773 8.52996 11.5239 8.20843 11.7387 7.93759 12.0095 7.66676 12.2804 7.45191 12.6019 7.30534 12.9558 7.15876 13.3096 7.08332 13.6889 7.08332 14.0719Z" stroke="#FFFFFF" stroke-width="0.833333" stroke-linecap="round" stroke-linejoin="round" fill="#008CB9"/></svg>