<svg width="21" height="21" viewBox="0 0 21 21" xmlns="http://www.w3.org/2000/svg" xmlns:xlink="http://www.w3.org/1999/xlink" fill="none" overflow="hidden"><defs><clipPath id="clip0_4138_25901"><rect x="0" y="0" width="20" height="20" fill="#FFFFFF" transform="translate(0.5 0.359131)"/></clipPath></defs><g clip-path="url(#clip0_4138_25901)"><path d="M1.37668 19.9424 19.6667 19.9424 1.37668 19.9424Z" stroke="#FFFFFF" fill="#008CB9"/><path d="M1.37668 19.9424 19.6667 19.9424" stroke="#FFFFFF" stroke-width="0.833333" stroke-linecap="round" stroke-linejoin="round" fill="#008CB9"/><path d="M10.5258 19.9423 10.5258 15.7756 10.5258 19.9423Z" stroke="#FFFFFF" fill="#008CB9"/><path d="M10.5258 19.9423 10.5258 15.7756" stroke="#FFFFFF" stroke-width="0.833333" stroke-linecap="round" stroke-linejoin="round" fill="#008CB9"/><path d="M18.0259 8.24824C18.0265 10.2437 17.2346 12.1577 15.8242 13.5694 14.4138 14.981 12.5005 15.7746 10.505 15.7757 8.49929 15.7424 6.58794 14.918 5.18714 13.4821 3.78634 12.0462 3.00953 10.115 3.02586 8.10908 3.02738 6.19215 3.77944 4.35203 5.12098 2.98277 6.46251 1.61351 8.28687 0.823976 10.2034 0.783242 10.3109 0.775742 10.4167 0.775742 10.5292 0.775742 11.5131 0.770462 12.4883 0.959962 13.3987 1.33332 14.309 1.70668 15.1365 2.25652 15.8333 2.95114 16.5302 3.64576 17.0827 4.47143 17.459 5.38056 17.8353 6.28969 18.028 7.26431 18.0259 8.24824Z" stroke="#FFFFFF" stroke-width="0.833333" stroke-linecap="round" stroke-linejoin="round" fill="#008CB9"/><path d="M10.2033 0.783203C6.29084 5.02154 6.29084 10.5524 10.2033 15.7699L10.2033 0.783203Z" stroke="#FFFFFF" fill="#008CB9"/><path d="M10.2033 0.783203C6.29084 5.02154 6.29084 10.5524 10.2033 15.7699" stroke="#FFFFFF" stroke-width="0.833333" stroke-linecap="round" stroke-linejoin="round" fill="#008CB9"/><path d="M10.8558 0.783203C14.7725 5.02154 14.7725 10.5507 10.8558 15.7674L10.8558 0.783203Z" stroke="#FFFFFF" fill="#008CB9"/><path d="M10.8558 0.783203C14.7725 5.02154 14.7725 10.5507 10.8558 15.7674" stroke="#FFFFFF" stroke-width="0.833333" stroke-linecap="round" stroke-linejoin="round" fill="#008CB9"/><path d="M3.86084 11.6091 17.2358 11.6091 3.86084 11.6091Z" stroke="#FFFFFF" fill="#008CB9"/><path d="M3.86084 11.6091 17.2358 11.6091" stroke="#FFFFFF" stroke-width="0.833333" stroke-linecap="round" stroke-linejoin="round" fill="#008CB9"/><path d="M4.27585 4.10913 16.7758 4.10913 4.27585 4.10913Z" stroke="#FFFFFF" fill="#008CB9"/><path d="M4.27585 4.10913 16.7758 4.10913" stroke="#FFFFFF" stroke-width="0.833333" stroke-linecap="round" stroke-linejoin="round" fill="#008CB9"/><path d="M3.02585 8.27563 18.0258 8.27563 3.02585 8.27563Z" stroke="#FFFFFF" fill="#008CB9"/><path d="M3.02585 8.27563 18.0258 8.27563" stroke="#FFFFFF" stroke-width="0.833333" stroke-linecap="round" stroke-linejoin="round" fill="#008CB9"/></g></svg>