<?xml version="1.0" encoding="utf-8"?>
<!-- Generator: Adobe Illustrator 23.0.4, SVG Export Plug-In . SVG Version: 6.00 Build 0)  -->
<svg version="1.1" id="Calque_1" xmlns="http://www.w3.org/2000/svg" xmlns:xlink="http://www.w3.org/1999/xlink" x="0px" y="0px"
	 viewBox="0 0 186.1 186.1" style="enable-background:new 0 0 186.1 186.1;" xml:space="preserve">
<style type="text/css">
	.st0{fill:#FFFFFF;}
</style>
<title>Fichier 1</title>
<g>
	<g id="Calque_1-2">
		<path d="M93,163c-2.5,0-4.9-1.2-6.6-3.4L2.7,57.1c-0.2-0.2-0.3-0.4-0.4-0.6c-2-2.7-2.4-6.6-1.1-9.8C2.4,43.2,5.2,41,8.3,41h169.5
			c3.1,0,5.9,2.2,7.2,5.7c1.3,3.2,0.8,7.1-1.1,9.8c-0.1,0.2-0.3,0.4-0.4,0.6L99.7,159.7C97.9,161.8,95.5,163,93,163z"/>
		<path class="st0" d="M177.8,41.5c2.9,0,5.6,2.1,6.8,5.4c1.2,3.1,0.8,6.7-1.1,9.3c-0.1,0.2-0.3,0.4-0.4,0.5L99.4,159.3
			c-3.5,4.3-9.2,4.3-12.7,0L3,56.8c-0.1-0.2-0.3-0.4-0.4-0.5c-1.8-2.6-2.3-6.2-1.1-9.3c1.2-3.3,3.9-5.4,6.8-5.4H177.8 M177.8,40.5
			H8.3c-6.9,0-10.9,10-6.4,16.4c0.1,0.2,0.3,0.4,0.5,0.6L86.1,160c3.8,4.7,10,4.7,13.9,0c0,0,0,0,0,0l83.7-102.5
			c0.2-0.2,0.3-0.4,0.5-0.6C188.7,50.5,184.7,40.5,177.8,40.5z"/>
	</g>
</g>
</svg>
