<?xml version="1.0" encoding="iso-8859-1"?>
<!-- Generator: Adobe Illustrator 25.2.3, SVG Export Plug-In . SVG Version: 6.00 Build 0)  -->
<svg
	version="1.1"
	id="Capa_1"
	xmlns="http://www.w3.org/2000/svg"
	xmlns:xlink="http://www.w3.org/1999/xlink"
	x="0px" y="0px"
	viewBox="5 141 512 512"
	style="enable-background:new 5 141 512 512;"
	xml:space="preserve">
<path
	style="fill:#003264;"
	d="M332.055,564.092c-0.601,7.733-7.053,13.824-14.941,13.824h-20.5c-8.284,0-15-6.716-15-15v-14.212
	c0-2.64,0.687-5.117,1.885-7.272c-21.97-15.206-39.945-35.765-52.031-59.806c-2.592,4.49-7.432,7.52-12.989,7.52h-20.5
	c-8.285,0-15-6.716-15-15v-14.212c0-8.284,6.715-15,15-15h20.386c-2.515-11.257-3.851-22.959-3.851-34.974
	c0-3.218,0.1-6.413,0.288-9.585H99.343c-8.284,0-15-6.716-15-15v-14.212c0-8.284,6.716-15,15-15h119.136
	c1.76,0,3.441,0.319,5.01,0.875c9.662-27.532,26.651-51.618,48.626-69.921c7.394-6.158,15.36-11.646,23.795-16.404H99.343
	c-8.284,0-15-6.716-15-15v-29.618c0-8.284,6.716-15,15-15h215.313c8.284,0,15,6.716,15,15v29.618c0,0.27-0.026,0.532-0.04,0.799
	c14.184-4.128,29.179-6.35,44.696-6.35c3.542,0,7.053,0.128,10.538,0.355c4.152,0.27,8.258,0.706,12.317,1.287v-61.549
	c0-27.159-22.096-49.255-49.255-49.255H66.089c-27.159,0-49.255,22.096-49.255,49.255v413.49C16.834,630.904,38.93,653,66.089,653
	h281.822c27.159,0,49.255-22.096,49.255-49.255v-35.622c-7.465,1.069-15.093,1.634-22.854,1.634
	C359.681,569.757,345.517,567.774,332.055,564.092z M134.844,562.916c0,8.284-6.716,15-15,15h-20.5c-8.284,0-15-6.716-15-15v-14.212
	c0-8.284,6.716-15,15-15h20.5c8.284,0,15,6.716,15,15V562.916z M134.844,474.146c0,8.284-6.716,15-15,15h-20.5
	c-8.284,0-15-6.716-15-15v-14.212c0-8.284,6.716-15,15-15h20.5c8.284,0,15,6.716,15,15V474.146z M233.479,562.916
	c0,8.284-6.716,15-15,15h-20.5c-8.285,0-15-6.716-15-15v-14.212c0-8.284,6.715-15,15-15h20.5c8.284,0,15,6.716,15,15V562.916z"/>
<path
	style="fill:#003264;"
	d="M394.423,270.783c-3.572-0.512-7.185-0.895-10.839-1.133c-3.066-0.2-6.156-0.312-9.273-0.312
	c-13.655,0-26.851,1.955-39.333,5.588c-5.904,1.718-11.65,3.808-17.205,6.251c-4.27,1.877-8.421,3.971-12.456,6.247
	c-7.422,4.187-14.433,9.016-20.939,14.435c-19.338,16.106-34.288,37.302-42.791,61.53c-4.228,12.046-6.858,24.843-7.645,38.136
	c-0.165,2.791-0.253,5.602-0.253,8.434c0,10.574,1.176,20.871,3.389,30.777c2.088,9.347,5.098,18.345,8.943,26.888
	c0.821,1.824,1.692,3.62,2.587,5.401c10.635,21.156,26.453,39.249,45.787,52.63c12.854,8.896,27.256,15.707,42.729,19.94
	c11.847,3.241,24.311,4.986,37.186,4.986c6.83,0,13.542-0.497,20.112-1.438c68.134-9.759,120.51-68.35,120.51-139.184
	C514.934,339.127,462.557,280.542,394.423,270.783z M394.423,490.102c-2.755,0.313-5.63,0.49-8.625,0.49
	c-19.391,0-36.719-7.088-49.178-20.366c-0.614-0.654-1.227-1.308-1.817-1.992c-6.602-7.296-11.639-16.519-14.868-27.497
	c-1.439-4.893-2.521-10.133-3.218-15.71h-15.574V412.72h14.317c0-1.257,0-2.513,0-3.768c0-2.583,0.108-5.051,0.249-7.426
	c0.078-1.321,0.164-2.622,0.253-3.879h-14.82v-12.559h16.578c1.402-8.175,3.791-15.688,6.945-22.434
	c3.63-7.765,8.278-14.509,13.655-20.021c12.811-13.314,29.139-20.849,49.737-20.849c2.198,0,4.314,0.103,6.364,0.276
	c11.775,0.989,21.056,4.552,27.047,7.762l-5.024,16.58c-5.131-3.078-13.112-5.819-22.023-6.721
	c-1.998-0.202-4.042-0.314-6.112-0.314c-13.566,0-24.619,4.774-33.159,13.816c-7.537,7.286-12.561,18.588-15.072,31.904h54.343
	h15.742v12.559h-15.742H337.82c-0.252,3.266-0.503,7.034-0.503,10.552c0,1.506,0,2.763,0,4.521h57.106h15.742v12.307h-15.742
	h-55.348c2.01,14.571,7.034,25.374,13.816,32.909c9.295,9.798,21.854,14.571,35.42,14.571c2.088,0,4.126-0.135,6.112-0.356
	c10.677-1.188,19.663-5.181,24.534-7.934l4.271,15.825C416.848,484.365,406.921,488.682,394.423,490.102z"/>
</svg>
