<svg xml:space="preserve" width="117.647" height="64.627" xmlns="http://www.w3.org/2000/svg"><path d="M32.68 9.314C31.335 3.972 26.505 0 20.751 0 14.998 0 10.167 3.972 8.823 9.314H0v6h8.823c1.345 5.342 6.175 9.313 11.928 9.313 5.754 0 10.584-3.972 11.929-9.313h84.967v-6zm-11.929 9.313a6.32 6.32 0 0 1-6.314-6.313A6.319 6.319 0 0 1 20.751 6a6.319 6.319 0 0 1 6.314 6.314 6.318 6.318 0 0 1-6.314 6.313zM61.438 49.314C60.093 43.972 55.263 40 49.509 40c-5.753 0-10.584 3.972-11.928 9.314H0v6h37.581c1.345 5.342 6.175 9.313 11.928 9.313 5.754 0 10.584-3.972 11.929-9.313h56.208v-6zm-11.929 9.313a6.32 6.32 0 0 1-6.314-6.313A6.319 6.319 0 0 1 49.509 46a6.319 6.319 0 0 1 6.314 6.314 6.317 6.317 0 0 1-6.314 6.313z"/><path d="M102.943 29.314C101.598 23.972 96.768 20 91.014 20c-5.754 0-10.584 3.972-11.929 9.314H0v6h79.086c1.345 5.342 6.175 9.313 11.929 9.313 5.754 0 10.584-3.972 11.929-9.313h14.703v-6zm-11.929 9.313a6.32 6.32 0 0 1-6.314-6.313A6.319 6.319 0 0 1 91.014 26a6.319 6.319 0 0 1 6.314 6.314 6.318 6.318 0 0 1-6.314 6.313z"/></svg>