<?xml version="1.0" encoding="windows-1252"?>
<svg version="1.1" id="Calque_1" xmlns="http://www.w3.org/2000/svg" xmlns:xlink="http://www.w3.org/1999/xlink" x="0px" y="0px" viewBox="0 0 384 307" style="enable-background:new 0 0 384 307;" xml:space="preserve">
<g>
	<path d="m319.87069,132.57766l0,-32.614l39.156,0l-43,-99.965l-273.027,0l-43,99.965l39.156,0l0,154.93l175.543,0c14.067,30.457 44.895,51.645 80.586,51.645c48.918,0 88.715,-39.801 88.715,-88.715c0,-40.391 -27.133,-74.559 -64.129,-85.246l0,0zm-18.656,-110.079l23.64,54.965l-104.613,0l-23.64,-54.965l104.613,0zm-243.399,0l104.614,0l-23.645,54.965l-104.613,0l23.644,-54.965zm3.84,77.465l91.946,0l14.664,-34.09l0,166.52l-106.61,0l0,-132.43zm129.11,132.43l0,-166.52l14.664,34.09l91.941,0l0,29.172c-0.691,-0.015 -1.387,-0.027 -2.086,-0.027c-48.918,0 -88.711,39.797 -88.711,88.715c0,4.961 0.414,9.828 1.203,14.57l-17.011,0zm104.519,51.645c-36.512,0 -66.215,-29.704 -66.215,-66.215c0,-36.512 29.703,-66.215 66.215,-66.215c36.512,0 66.215,29.703 66.215,66.215c0,36.511 -29.703,66.215 -66.215,66.215l0,0zm0,0" fill="#003264"/>
	<g id="svg_3">
		<path d="m329.16669,210.25266l-26.339,0l0,-26.311c0,-4.17 -3.369,-7.546 -7.53,-7.546c-4.17,0 -7.53,3.376 -7.53,7.546l0,26.339l-26.355,0c-4.163,0 -7.548,3.378 -7.548,7.539c0,2.085 0.837,3.992 2.201,5.353c1.362,1.373 3.253,2.238 5.328,2.238l26.373,0l0,26.293c0,2.085 0.83,3.973 2.192,5.338c1.364,1.364 3.243,2.21 5.328,2.21c4.161,0 7.539,-3.387 7.539,-7.548l0,-26.302l26.339,0c4.161,0 7.536,-3.403 7.536,-7.573c0.002,-4.164 -3.374,-7.576 -7.534,-7.576l0,0zm0,0" fill="#003264"/>
	</g>
</g>
</svg>