<?xml version="1.0" encoding="windows-1252"?>
<!-- Generator: Adobe Illustrator 25.2.3, SVG Export Plug-In . SVG Version: 6.00 Build 0)  -->
<svg version="1.1" id="Calque_1" xmlns="http://www.w3.org/2000/svg" xmlns:xlink="http://www.w3.org/1999/xlink" x="0px" y="0px" viewBox="0 0 841.89 595.276" style="enable-background:new 0 0 841.89 595.276;" xml:space="preserve">
<g>
	<path style="fill:#003264;" d="M548.816,277.855v-32.614h39.156l-43-99.965H271.945l-43,99.965h39.156v154.93h175.543   c14.067,30.457,44.895,51.645,80.586,51.645c48.918,0,88.715-39.801,88.715-88.715C612.945,322.71,585.812,288.542,548.816,277.855   L548.816,277.855z M530.16,167.776l23.64,54.965H449.187l-23.64-54.965H530.16z M286.761,167.776h104.614l-23.645,54.965H263.117   L286.761,167.776z M290.601,245.241h91.946l14.664-34.09v166.52h-106.61V245.241z M419.711,377.671v-166.52l14.664,34.09h91.941   v29.172c-0.691-0.015-1.387-0.027-2.086-0.027c-48.918,0-88.711,39.797-88.711,88.715c0,4.961,0.414,9.828,1.203,14.57H419.711z    M524.23,429.316c-36.512,0-66.215-29.704-66.215-66.215c0-36.512,29.703-66.215,66.215-66.215   c36.512,0,66.215,29.703,66.215,66.215C590.445,399.612,560.742,429.316,524.23,429.316L524.23,429.316z M524.23,429.316"/>
	<g>
		<path style="fill:#003264;" d="M558.112,355.53h-26.339v-26.311c0-4.17-3.369-7.546-7.53-7.546c-4.17,0-7.53,3.376-7.53,7.546    v26.339h-26.355c-4.163,0-7.548,3.378-7.548,7.539c0,2.085,0.837,3.992,2.201,5.353c1.362,1.373,3.253,2.238,5.328,2.238h26.373    v26.293c0,2.085,0.83,3.973,2.192,5.338c1.364,1.364,3.243,2.21,5.328,2.21c4.161,0,7.539-3.387,7.539-7.548v-26.302h26.339    c4.161,0,7.536-3.403,7.536-7.573C565.648,358.942,562.272,355.53,558.112,355.53L558.112,355.53z M558.112,355.53"/>
	</g>
</g>
</svg>