<?xml version="1.0" encoding="utf-8"?>
<!-- Generator: Adobe Illustrator 25.2.3, SVG Export Plug-In . SVG Version: 6.00 Build 0)  -->
<svg version="1.1" id="Calque_1" xmlns="http://www.w3.org/2000/svg" xmlns:xlink="http://www.w3.org/1999/xlink" x="0px" y="0px"
	 viewBox="0 0 841.9 595.3" style="enable-background:new 0 0 841.9 595.3;" xml:space="preserve">
<style type="text/css">
	.st0{fill:#181D38;}
</style>
<g>
	<path class="st0" d="M548.8,277.9v-32.6H588l-43-100h-273l-43,100h39.2v154.9h175.5c14.1,30.5,44.9,51.6,80.6,51.6
		c48.9,0,88.7-39.8,88.7-88.7C612.9,322.7,585.8,288.5,548.8,277.9L548.8,277.9z M530.2,167.8l23.6,55H449.2l-23.6-55H530.2z
		 M286.8,167.8h104.6l-23.6,55H263.1L286.8,167.8z M290.6,245.2h91.9l14.7-34.1v166.5H290.6V245.2z M419.7,377.7V211.2l14.7,34.1
		h91.9v29.2c-0.7,0-1.4,0-2.1,0c-48.9,0-88.7,39.8-88.7,88.7c0,5,0.4,9.8,1.2,14.6H419.7z M524.2,429.3c-36.5,0-66.2-29.7-66.2-66.2
		c0-36.5,29.7-66.2,66.2-66.2s66.2,29.7,66.2,66.2C590.4,399.6,560.7,429.3,524.2,429.3L524.2,429.3z"/>
	<g>
		<path class="st0" d="M558.1,355.5h-26.3v-26.3c0-4.2-3.4-7.5-7.5-7.5c-4.2,0-7.5,3.4-7.5,7.5v26.3h-26.4c-4.2,0-7.5,3.4-7.5,7.5
			c0,2.1,0.8,4,2.2,5.4c1.4,1.4,3.3,2.2,5.3,2.2h26.4V397c0,2.1,0.8,4,2.2,5.3c1.4,1.4,3.2,2.2,5.3,2.2c4.2,0,7.5-3.4,7.5-7.5v-26.3
			h26.3c4.2,0,7.5-3.4,7.5-7.6C565.6,358.9,562.3,355.5,558.1,355.5L558.1,355.5z"/>
	</g>
</g>
</svg>
