<svg xmlns="http://www.w3.org/2000/svg" viewBox="0 0 196.31 70.3"><defs><style>.cls-1{fill:#b8c2c7;}.cls-2,.cls-3{fill:none;stroke:#0b94a3;stroke-miterlimit:10;}.cls-2{stroke-width:1.76px;}.cls-3{stroke-width:6px;}</style></defs><title>logo</title><g id="Calque_2" data-name="Calque 2"><g id="Calque_4" data-name="Calque 4"><path class="cls-1" d="M92.8,21.44a14.49,14.49,0,1,0,14.49,14.49A14.49,14.49,0,0,0,92.8,21.44Zm1.35,23.1A8.56,8.56,0,1,1,102.71,36,8.56,8.56,0,0,1,94.15,44.54Z"/><rect class="cls-1" x="152.34" y="14" width="6.34" height="35.66"/><rect class="cls-1" x="102.8" y="21.44" width="6.34" height="28.22"/><rect class="cls-1" x="146.75" y="21.99" width="17.77" height="5.58"/><path class="cls-1" d="M137.67,39.24a8.56,8.56,0,1,1,0-6.44h5.91a14.49,14.49,0,1,0,0,6.44Z"/><path class="cls-1" d="M185.59,21.61c-7.33,0-9.89,4.45-9.89,4.45V22h-6.35V49.66h6.35V31.89c.52-1.52,2.22-4.75,7.4-4.75,6.78,0,6.87,6.54,6.87,6.54v16h6.34v-16C196.31,26,192.92,21.61,185.59,21.61Z"/><polygon class="cls-2" points="44.05 27.3 30.44 34.83 30.44 50.86 44.05 43.01 44.05 27.3"/><polygon class="cls-2" points="16.83 27.3 30.44 34.83 30.44 50.86 16.83 43.01 16.83 27.3"/><polygon class="cls-2" points="30.44 19.44 16.83 27.3 30.44 34.83 44.05 27.3 30.44 19.44"/><polygon class="cls-3" points="45.91 44.08 30.44 53.01 14.98 44.07 14.98 26.22 30.44 17.3 45.91 26.22 45.91 44.08"/><polyline class="cls-3" points="45.73 44.1 52.88 50.35 57.88 46.8 57.88 19.31 30.44 3.46 3 19.31 3 50.99 30.44 66.84 47.54 56.97"/></g></g></svg>